<svg version="1.1" xmlns="http://www.w3.org/2000/svg" xmlns:xlink="http://www.w3.org/1999/xlink" width="404" height="581"><defs/><g><g transform="translate(-246,-174) scale(1,1)"><path fill="#C0C0C0" stroke="none" d="M 439 200.5 C 439 195.2532944 443.2532944 191 448.5 191 C 453.7467056 191 458 195.2532944 458 200.5 C 458 205.7467056 453.7467056 210 448.5 210 C 443.2532944 210 439 205.7467056 439 200.5 Z" opacity="0.2"/></g><g transform="translate(-246,-174) scale(1,1)"><path fill="#000000" stroke="none" d="M 432 193.5 C 432 188.2532944 436.2532944 184 441.5 184 C 446.7467056 184 451 188.2532944 451 193.5 C 451 198.7467056 446.7467056 203 441.5 203 C 436.2532944 203 432 198.7467056 432 193.5 Z"/></g><g transform="translate(-246,-174) scale(1,1)"><path fill="#C0C0C0" stroke="none" d="M 437 739.5 C 437 732.59644 442.59644 727 449.5 727 C 456.40356 727 462 732.59644 462 739.5 C 462 746.40356 456.40356 752 449.5 752 C 442.59644 752 437 746.40356 437 739.5 Z" opacity="0.2"/></g><g transform="translate(-246,-174) scale(1,1)"><path fill="none" stroke="#000000" d="M 430 732.5 C 430 725.59644 435.59644 720 442.5 720 C 449.40356 720 455 725.59644 455 732.5 C 455 739.40356 449.40356 745 442.5 745 C 435.59644 745 430 739.40356 430 732.5 Z" stroke-miterlimit="10"/></g><g transform="translate(-246,-174) scale(1,1)"><path fill="#000000" stroke="none" d="M 435 732.5 C 435 728.357864 438.357864 725 442.5 725 C 446.642136 725 450 728.357864 450 732.5 C 450 736.642136 446.642136 740 442.5 740 C 438.357864 740 435 736.642136 435 732.5 Z"/></g><g transform="translate(-246,-174) scale(1,1)"><path fill="#C0C0C0" stroke="none" d="M 384 247 L 525 247 Q 535 247 535 257 L 535 292 Q 535 302 525 302 L 384 302 Q 374 302 374 292 L 374 257 Q 374 247 384 247 Z" opacity="0.2"/></g><g transform="translate(-246,-174) scale(1,1)"><path fill="#ffffff" stroke="none" d="M 377 240 L 518 240 Q 528 240 528 250 L 528 285 Q 528 295 518 295 L 377 295 Q 367 295 367 285 L 367 250 Q 367 240 377 240 Z"/></g><g transform="translate(-246,-174) scale(1,1)"><path fill="none" stroke="#000000" d="M 377 240 L 518 240 Q 528 240 528 250 L 528 285 Q 528 295 518 295 L 377 295 Q 367 295 367 285 L 367 250 Q 367 240 377 240 Z" stroke-miterlimit="10"/></g><g transform="translate(-246,-174) scale(1,1)"><g><path fill="none" stroke="none"/><text fill="#000000" stroke="none" font-family="Arial" font-size="13px" font-style="normal" font-weight="bold" text-decoration="none" x="382.458740234375" y="259.5">Select publication type</text></g></g><g transform="translate(-246,-174) scale(1,1)"><path fill="none" stroke="#000000" d="M 440 203 L 440 240" stroke-miterlimit="10"/></g><g transform="translate(-246,-174) scale(1,1)"><path fill="none" stroke="#000000" d="M 435.790482243984 229.83732514237585 L 440 240 L 444.209517756016 229.83732514237585" stroke-miterlimit="10"/></g><g transform="translate(-246,-174) scale(1,1)"><path fill="#C0C0C0" stroke="none" d="M 273 407 L 381 407 Q 391 407 391 417 L 391 437 Q 391 447 381 447 L 273 447 Q 263 447 263 437 L 263 417 Q 263 407 273 407 Z" opacity="0.2"/></g><g transform="translate(-246,-174) scale(1,1)"><path fill="#ffffff" stroke="none" d="M 266 400 L 374 400 Q 384 400 384 410 L 384 430 Q 384 440 374 440 L 266 440 Q 256 440 256 430 L 256 410 Q 256 400 266 400 Z"/></g><g transform="translate(-246,-174) scale(1,1)"><path fill="none" stroke="#000000" d="M 266 400 L 374 400 Q 384 400 384 410 L 384 430 Q 384 440 374 440 L 266 440 Q 256 440 256 430 L 256 410 Q 256 400 266 400 Z" stroke-miterlimit="10"/></g><g transform="translate(-246,-174) scale(1,1)"><g><path fill="none" stroke="none"/><text fill="#000000" stroke="none" font-family="Arial" font-size="13px" font-style="normal" font-weight="bold" text-decoration="none" x="273.7509765625" y="419.5">Analyze the text</text></g></g><g transform="translate(-246,-174) scale(1,1)"><path fill="#C0C0C0" stroke="none" d="M 431 344.5 L 442.5 335 L 453 344.5 L 442.5 353 L 431 344.5" opacity="0.2"/></g><g transform="translate(-246,-174) scale(1,1)"><path fill="#ffffff" stroke="none" d="M 424 337 L 435 328 L 446 337 L 435 346 L 424 337"/></g><g transform="translate(-246,-174) scale(1,1)"><path fill="none" stroke="#000000" d="M 424 337 L 435 328 L 446 337 L 435 346 L 424 337 L 424 337" stroke-miterlimit="10"/></g><g transform="translate(-246,-174) scale(1,1)"><path fill="#C0C0C0" stroke="none" d="M 497 374 L 637 374 Q 647 374 647 384 L 647 404 Q 647 414 637 414 L 497 414 Q 487 414 487 404 L 487 384 Q 487 374 497 374 Z" opacity="0.2"/></g><g transform="translate(-246,-174) scale(1,1)"><path fill="#ffffff" stroke="none" d="M 490 367 L 630 367 Q 640 367 640 377 L 640 397 Q 640 407 630 407 L 490 407 Q 480 407 480 397 L 480 377 Q 480 367 490 367 Z"/></g><g transform="translate(-246,-174) scale(1,1)"><path fill="none" stroke="#000000" d="M 490 367 L 630 367 Q 640 367 640 377 L 640 397 Q 640 407 630 407 L 490 407 Q 480 407 480 397 L 480 377 Q 480 367 490 367 Z" stroke-miterlimit="10"/></g><g transform="translate(-246,-174) scale(1,1)"><g><path fill="none" stroke="none"/><text fill="#000000" stroke="none" font-family="Arial" font-size="13px" font-style="normal" font-weight="bold" text-decoration="none" x="496.77099609375" y="386.5">Document recognition</text></g></g><g transform="translate(-246,-174) scale(1,1)"><path fill="#C0C0C0" stroke="none" d="M 505 455 L 637 455 Q 647 455 647 465 L 647 485 Q 647 495 637 495 L 505 495 Q 495 495 495 485 L 495 465 Q 495 455 505 455 Z" opacity="0.2"/></g><g transform="translate(-246,-174) scale(1,1)"><path fill="#ffffff" stroke="none" d="M 498 448 L 630 448 Q 640 448 640 458 L 640 478 Q 640 488 630 488 L 498 488 Q 488 488 488 478 L 488 458 Q 488 448 498 448 Z"/></g><g transform="translate(-246,-174) scale(1,1)"><path fill="none" stroke="#000000" d="M 498 448 L 630 448 Q 640 448 640 458 L 640 478 Q 640 488 630 488 L 498 488 Q 488 488 488 478 L 488 458 Q 488 448 498 448 Z" stroke-miterlimit="10"/></g><g transform="translate(-246,-174) scale(1,1)"><g><path fill="none" stroke="none"/><text fill="#000000" stroke="none" font-family="Arial" font-size="13px" font-style="normal" font-weight="bold" text-decoration="none" x="507.274169921875" y="467.5">File content parsing</text></g></g><g transform="translate(-246,-174) scale(1,1)"><path fill="none" stroke="#000000" d="M 438 295 L 438 328" stroke-miterlimit="10"/></g><g transform="translate(-246,-174) scale(1,1)"><path fill="none" stroke="#000000" d="M 433.790482243984 317.83732514237585 L 438 328 L 442.209517756016 317.83732514237585" stroke-miterlimit="10"/></g><g transform="translate(-246,-174) scale(1,1)"><path fill="none" stroke="#000000" d="M 423 346 L 349 399" stroke-miterlimit="10"/></g><g transform="translate(-246,-174) scale(1,1)"><path fill="none" stroke="#000000" d="M 354.81105272933763 389.6602105924781 L 349 399 L 359.7132632156602 396.5048063658342" stroke-miterlimit="10"/></g><g transform="translate(-246,-174) scale(1,1)"><g><path fill="none" stroke="none"/><text fill="#000000" stroke="none" font-family="Arial" font-size="13px" font-style="normal" font-weight="normal" text-decoration="none" x="287.5" y="347.5">Do not include files</text></g></g><g transform="translate(-246,-174) scale(1,1)"><path fill="none" stroke="#000000" d="M 447 342 L 508 366" stroke-miterlimit="10"/></g><g transform="translate(-246,-174) scale(1,1)"><path fill="none" stroke="#000000" d="M 497.0017540202495 366.19643158835134 L 508 366 L 500.08416757839825 358.36196379472324" stroke-miterlimit="10"/></g><g transform="translate(-246,-174) scale(1,1)"><g><path fill="none" stroke="none"/><text fill="#000000" stroke="none" font-family="Arial" font-size="13px" font-style="normal" font-weight="normal" text-decoration="none" x="494.5" y="348.5">Include file</text></g></g><g transform="translate(-246,-174) scale(1,1)"><path fill="none" stroke="#000000" d="M 551 407 L 551 448" stroke-miterlimit="10"/></g><g transform="translate(-246,-174) scale(1,1)"><path fill="none" stroke="#000000" d="M 546.790482243984 437.83732514237585 L 551 448 L 555.209517756016 437.83732514237585" stroke-miterlimit="10"/></g><g transform="translate(-246,-174) scale(1,1)"><path fill="#C0C0C0" stroke="none" d="M 418 527 L 481 527 Q 484 527 484 530 L 484 529 Q 484 532 481 532 L 418 532 Q 415 532 415 529 L 415 530 Q 415 527 418 527 Z" opacity="0.2"/></g><g transform="translate(-246,-174) scale(1,1)"><path fill="#000000" stroke="none" d="M 411 520 L 474 520 Q 477 520 477 523 L 477 523 Q 477 526 474 526 L 411 526 Q 408 526 408 523 L 408 523 Q 408 520 411 520 Z"/></g><g transform="translate(-246,-174) scale(1,1)"><path fill="none" stroke="#000000" d="M 345 441 L 438 519" stroke-miterlimit="10"/></g><g transform="translate(-246,-174) scale(1,1)"><path fill="none" stroke="#000000" d="M 427.5083567415277 515.6946374273081 L 438 519 L 432.9185321955748 509.24404361671344" stroke-miterlimit="10"/></g><g transform="translate(-246,-174) scale(1,1)"><path fill="none" stroke="#000000" d="M 517 489 L 449 519" stroke-miterlimit="10"/></g><g transform="translate(-246,-174) scale(1,1)"><path fill="none" stroke="#000000" d="M 456.5988815222131 511.0465730900845 L 449 519 L 459.99714275546285 518.7492985521172" stroke-miterlimit="10"/></g><g transform="translate(-246,-174) scale(1,1)"><path fill="#C0C0C0" stroke="none" d="M 361 583 L 525 583 Q 535 583 535 593 L 535 613 Q 535 623 525 623 L 361 623 Q 351 623 351 613 L 351 593 Q 351 583 361 583 Z" opacity="0.2"/></g><g transform="translate(-246,-174) scale(1,1)"><path fill="#ffffff" stroke="none" d="M 354 576 L 518 576 Q 528 576 528 586 L 528 606 Q 528 616 518 616 L 354 616 Q 344 616 344 606 L 344 586 Q 344 576 354 576 Z"/></g><g transform="translate(-246,-174) scale(1,1)"><path fill="none" stroke="#000000" d="M 354 576 L 518 576 Q 528 576 528 586 L 528 606 Q 528 616 518 616 L 354 616 Q 344 616 344 606 L 344 586 Q 344 576 354 576 Z" stroke-miterlimit="10"/></g><g transform="translate(-246,-174) scale(1,1)"><g><path fill="none" stroke="none"/><text fill="#000000" stroke="none" font-family="Arial" font-size="13px" font-style="normal" font-weight="bold" text-decoration="none" x="365.188720703125" y="595.5">Upload Ali Cloud service</text></g></g><g transform="translate(-246,-174) scale(1,1)"><path fill="#C0C0C0" stroke="none" d="M 418 655 L 485 655 Q 495 655 495 665 L 495 685 Q 495 695 485 695 L 418 695 Q 408 695 408 685 L 408 665 Q 408 655 418 655 Z" opacity="0.2"/></g><g transform="translate(-246,-174) scale(1,1)"><path fill="#ffffff" stroke="none" d="M 411 648 L 478 648 Q 488 648 488 658 L 488 678 Q 488 688 478 688 L 411 688 Q 401 688 401 678 L 401 658 Q 401 648 411 648 Z"/></g><g transform="translate(-246,-174) scale(1,1)"><path fill="none" stroke="#000000" d="M 411 648 L 478 648 Q 488 648 488 658 L 488 678 Q 488 688 478 688 L 411 688 Q 401 688 401 678 L 401 658 Q 401 648 411 648 Z" stroke-miterlimit="10"/></g><g transform="translate(-246,-174) scale(1,1)"><g><path fill="none" stroke="none"/><text fill="#000000" stroke="none" font-family="Arial" font-size="13px" font-style="normal" font-weight="bold" text-decoration="none" x="410.5400390625" y="667.5">Show result</text></g></g><g transform="translate(-246,-174) scale(1,1)"><path fill="none" stroke="#000000" d="M 438 525 L 438 576" stroke-miterlimit="10"/></g><g transform="translate(-246,-174) scale(1,1)"><path fill="none" stroke="#000000" d="M 433.790482243984 565.8373251423759 L 438 576 L 442.209517756016 565.8373251423759" stroke-miterlimit="10"/></g><g transform="translate(-246,-174) scale(1,1)"><path fill="none" stroke="#000000" d="M 440 616 L 440 648" stroke-miterlimit="10"/></g><g transform="translate(-246,-174) scale(1,1)"><path fill="none" stroke="#000000" d="M 435.790482243984 637.8373251423759 L 440 648 L 444.209517756016 637.8373251423759" stroke-miterlimit="10"/></g><g transform="translate(-246,-174) scale(1,1)"><path fill="none" stroke="#000000" d="M 445 688 L 445 720" stroke-miterlimit="10"/></g><g transform="translate(-246,-174) scale(1,1)"><path fill="none" stroke="#000000" d="M 440.790482243984 709.8373251423759 L 445 720 L 449.209517756016 709.8373251423759" stroke-miterlimit="10"/></g></g></svg>